<?xml version="1.0" encoding="UTF-8" standalone="no" ?>
<!DOCTYPE svg PUBLIC "-//W3C//DTD SVG 1.1//EN" "http://www.w3.org/Graphics/SVG/1.1/DTD/svg11.dtd">
<svg xmlns="http://www.w3.org/2000/svg" xmlns:xlink="http://www.w3.org/1999/xlink" version="1.1" width="1080" height="1080" viewBox="0 0 1080 1080" xml:space="preserve">
<desc>Created with Fabric.js 5.2.4</desc>
<defs>
</defs>
<g transform="matrix(1 0 0 1 540 540)" id="4c521a97-0a3f-45f6-9111-59eb9ad613e6"  >
</g>
<g transform="matrix(1 0 0 1 540 540)" id="62c565fa-5b69-499a-96ef-c3c2ade8fa27"  >
<rect style="stroke: none; stroke-width: 1; stroke-dasharray: none; stroke-linecap: butt; stroke-dashoffset: 0; stroke-linejoin: miter; stroke-miterlimit: 4; fill: rgb(255,255,255); fill-rule: nonzero; opacity: 1; visibility: hidden;" vector-effect="non-scaling-stroke"  x="-540" y="-540" rx="0" ry="0" width="1080" height="1080" />
</g>
<g transform="matrix(5.16 0 0 5.16 540 588.91)"  >
<g style=""   >
		<g transform="matrix(0.39 0 0 0.39 -40.92 -49.63)"  >
<path style="stroke: none; stroke-width: 1; stroke-dasharray: none; stroke-linecap: butt; stroke-dashoffset: 0; stroke-linejoin: miter; stroke-miterlimit: 4; fill: rgb(199,186,129); fill-rule: nonzero; opacity: 1;" vector-effect="non-scaling-stroke"  transform=" translate(-151.4, -129.13)" d="M 256.005 16.504 L 256.005 57.406000000000006 C 201.714 57.406000000000006 153.53 83.37400000000001 124.10399999999998 123.24600000000001 C 105.93399999999998 147.596 94.89899999999999 177.169 93.79499999999999 209.243 C 93.64799999999998 211.082 93.64799999999998 212.995 93.64799999999998 214.90699999999998 C 93.64799999999998 222.18999999999997 94.16299999999998 229.54699999999997 95.19299999999998 236.682 L 92.02999999999999 237.04999999999998 L 83.86399999999999 237.933 L 48.7 241.759 C 47.45 232.93099999999998 46.787000000000006 223.88299999999998 46.787000000000006 214.908 C 46.787000000000006 213.069 46.787000000000006 211.303 46.934000000000005 209.464 C 47.37500000000001 191.588 50.318000000000005 174.153 55.615 157.454 C 57.528 151.34900000000002 59.808 145.316 62.383 139.357 C 68.563 125.232 76.434 111.697 85.997 99.191 C 92.323 90.805 99.46 82.786 107.257 75.28200000000001 C 146.909 37.396 199.655 16.504 256.005 16.504 z" stroke-linecap="round" />
</g>
		<g transform="matrix(0.39 0 0 0.39 -41.66 -47.78)"  >
<path style="stroke: none; stroke-width: 1; stroke-dasharray: none; stroke-linecap: butt; stroke-dashoffset: 0; stroke-linejoin: miter; stroke-miterlimit: 4; fill: rgb(89,83,79); fill-rule: nonzero; opacity: 1;" vector-effect="non-scaling-stroke"  transform=" translate(-149.52, -133.89)" d="M 256.005 3.899 L 256.005 44.801 C 200.317 44.801 150.73399999999998 74.374 119.249 120.132 C 101.667 145.585 89.823 176.041 85.63 209.219 L 85.63 209.293 C 84.45299999999999 218.12 83.86399999999999 227.095 83.86399999999999 236.217 L 83.86399999999999 237.90900000000002 C 83.93799999999999 244.824 84.37899999999999 251.88600000000002 85.115 258.802 L 69.078 260.788 L 44.581 263.878 C 44.434000000000005 262.33299999999997 44.213 260.788 44.14 259.243 L 44.14 259.169 C 43.404 251.51899999999998 43.037 243.867 43.037 236.21699999999998 C 43.037 227.315 43.478 218.56199999999998 44.435 209.88099999999997 L 44.435 209.80799999999996 C 45.465 199.80299999999997 47.083000000000006 189.94499999999996 49.290000000000006 180.30899999999997 C 50.982000000000006 172.58499999999998 53.11600000000001 164.93399999999997 55.61600000000001 157.42999999999998 C 57.529 151.32399999999998 59.809000000000005 145.29199999999997 62.38400000000001 139.33299999999997 C 63.120000000000005 137.56699999999998 63.855000000000004 135.80199999999996 64.81200000000001 134.03599999999997 C 70.25600000000001 121.52999999999997 76.95000000000002 109.53899999999997 84.67500000000001 98.28399999999996 C 90.70700000000001 89.30899999999997 97.47500000000001 80.77599999999997 104.75800000000001 72.68399999999997 C 137.20000000000002 37.00499999999997 178.24900000000002 14.273999999999972 222.83 6.769999999999968 L 222.90300000000002 6.695999999999968 C 233.789 4.855 244.823 3.899 256.005 3.899 z" stroke-linecap="round" />
</g>
		<g transform="matrix(0.39 0 0 0.39 -86.53 22.22)"  >
<path style="stroke: none; stroke-width: 1; stroke-dasharray: none; stroke-linecap: butt; stroke-dashoffset: 0; stroke-linejoin: miter; stroke-miterlimit: 4; fill: rgb(108,73,36); fill-rule: nonzero; opacity: 1;" vector-effect="non-scaling-stroke"  transform=" translate(-34.54, -312.98)" d="M 69.077 258.212 L 69.077 367.75 L 54.806 367.75 C 40.754999999999995 367.75 27.955 362.38 18.244 353.552 C 7.062 343.621 0 329.128 0 313.017 C 0 297.936 6.18 284.253 16.111 274.322 C 16.773 273.66 17.509 272.924 18.244 272.409 C 25.454 265.86199999999997 34.355000000000004 261.227 44.138999999999996 259.241 C 47.596999999999994 258.579 51.12799999999999 258.211 54.806 258.211 L 69.077 258.211 z" stroke-linecap="round" />
</g>
		<g transform="matrix(0.39 0 0 0.39 -72.64 22.2)"  >
<path style="stroke: none; stroke-width: 1; stroke-dasharray: none; stroke-linecap: butt; stroke-dashoffset: 0; stroke-linejoin: miter; stroke-miterlimit: 4; fill: rgb(255,107,107); fill-rule: nonzero; opacity: 1;" vector-effect="non-scaling-stroke"  transform=" translate(-70.11, -313.02)" d="M 121.97 225.255 L 121.97 400.706 C 121.97 409.534 114.834 416.743 106.007 416.743 L 50.686 416.743 C 47.891 416.743 45.242 416.375 42.667 415.713 C 31.265 412.77000000000004 22.216 403.79600000000005 19.347 392.39300000000003 C 18.612000000000002 389.81800000000004 18.243000000000002 387.09700000000004 18.243000000000002 384.30100000000004 L 18.243000000000002 241.66 C 18.243000000000002 225.99099999999999 29.572000000000003 212.823 44.432 209.88 C 45.241 209.733 46.050000000000004 209.58599999999998 46.933 209.512 C 48.183 209.365 49.434 209.292 50.685 209.292 L 106.006 209.292 C 114.834 209.292 121.97 216.427 121.97 225.255 z" stroke-linecap="round" />
</g>
		<g transform="matrix(0.39 0 0 0.39 -53.73 22.2)"  >
<path style="stroke: none; stroke-width: 1; stroke-dasharray: none; stroke-linecap: butt; stroke-dashoffset: 0; stroke-linejoin: miter; stroke-miterlimit: 4; fill: rgb(5,1,1); fill-rule: nonzero; opacity: 0.1;" vector-effect="non-scaling-stroke"  transform=" translate(-118.51, -312.99)" d="M 144.978 225.238 L 144.978 400.735 C 144.978 409.565 137.817 416.718 128.995 416.718 L 92.867 416.718 C 92.322 413.41400000000004 92.04100000000001 409.986 92.04100000000001 406.459 L 92.04100000000001 209.255 L 128.996 209.255 C 137.817 209.255 144.978 216.416 144.978 225.238 z" stroke-linecap="round" />
</g>
		<g transform="matrix(0.39 0 0 0.39 -50.3 22.18)"  >
<path style="stroke: none; stroke-width: 1; stroke-dasharray: none; stroke-linecap: butt; stroke-dashoffset: 0; stroke-linejoin: miter; stroke-miterlimit: 4; fill: rgb(108,73,36); fill-rule: nonzero; opacity: 1;" vector-effect="non-scaling-stroke"  transform=" translate(-127.28, -312.99)" d="M 127.28 441.215 L 127.28 441.215 C 114.333 441.215 103.741 430.62199999999996 103.741 417.676 L 103.741 208.299 C 103.741 195.352 114.334 184.76 127.28 184.76 L 127.28 184.76 C 140.227 184.76 150.81900000000002 195.35299999999998 150.81900000000002 208.29899999999998 L 150.81900000000002 417.676 C 150.82 430.623 140.227 441.215 127.28 441.215 z" stroke-linecap="round" />
</g>
		<g transform="matrix(0.39 0 0 0.39 -34.49 -75.93)"  >
<path style="stroke: none; stroke-width: 1; stroke-dasharray: none; stroke-linecap: butt; stroke-dashoffset: 0; stroke-linejoin: miter; stroke-miterlimit: 4; fill: rgb(255,107,107); fill-rule: nonzero; opacity: 1;" vector-effect="non-scaling-stroke"  transform=" translate(-167.84, -61.72)" d="M 256.005 0 L 256.005 58.852 C 255.932 58.852 255.932 58.852 255.858 58.852 C 246.147 58.852 236.584 59.808 227.315 61.5 C 224.37199999999999 62.089 221.503 62.677 218.635 63.413 C 213.85299999999998 64.59 209.14499999999998 65.988 204.584 67.67999999999999 C 173.76 78.34599999999999 146.321 98.20899999999999 124.399 123.442 L 124.104 123.222 L 120.132 120.72099999999999 L 119.24900000000001 120.133 L 113.21700000000001 116.307 L 85.997 99.165 L 84.673 98.28200000000001 L 79.671 95.11900000000001 C 112.40700000000001 43.40300000000001 166.477 9.711000000000013 227.757 1.7650000000000148 C 236.952 0.589 246.368 0 255.858 0 C 255.932 0 255.932 0 256.005 0 z" stroke-linecap="round" />
</g>
		<g transform="matrix(0.39 0 0 0.39 -26.57 -66.45)"  >
<path style="stroke: none; stroke-width: 1; stroke-dasharray: none; stroke-linecap: butt; stroke-dashoffset: 0; stroke-linejoin: miter; stroke-miterlimit: 4; fill: rgb(102,42,24); fill-rule: nonzero; opacity: 1;" vector-effect="non-scaling-stroke"  transform=" translate(-188.07, -85.95)" d="M 256.005 48.431 L 256.005 58.876999999999995 C 255.93099999999998 58.876999999999995 255.93099999999998 58.876999999999995 255.858 58.876999999999995 C 246.147 58.876999999999995 236.584 59.833 227.315 61.525 C 224.37199999999999 62.114 221.503 62.702 218.635 63.437999999999995 C 213.85299999999998 64.615 209.14499999999998 66.01299999999999 204.584 67.705 C 173.76 78.371 146.321 98.234 124.398 123.467 L 124.104 123.247 L 120.132 120.746 C 153.014 79.107 202.229 49.093 256.005 48.431 z" stroke-linecap="round" />
</g>
		<g transform="matrix(0.39 0 0 0.39 40.8 -49.63)"  >
<path style="stroke: none; stroke-width: 1; stroke-dasharray: none; stroke-linecap: butt; stroke-dashoffset: 0; stroke-linejoin: miter; stroke-miterlimit: 4; fill: rgb(199,186,129); fill-rule: nonzero; opacity: 1;" vector-effect="non-scaling-stroke"  transform=" translate(-360.61, -129.13)" d="M 256.005 16.504 L 256.005 57.406000000000006 C 310.296 57.406000000000006 358.48 83.37400000000001 387.906 123.24600000000001 C 406.076 147.596 417.111 177.169 418.21500000000003 209.243 C 418.362 211.082 418.362 212.995 418.362 214.90699999999998 C 418.362 222.18999999999997 417.84700000000004 229.54699999999997 416.817 236.682 L 419.98 237.04999999999998 L 428.146 237.933 L 463.31 241.759 C 464.56 232.93099999999998 465.223 223.88299999999998 465.223 214.908 C 465.223 213.069 465.223 211.303 465.076 209.464 C 464.63500000000005 191.588 461.692 174.153 456.39500000000004 157.454 C 454.482 151.34900000000002 452.20200000000006 145.316 449.62700000000007 139.357 C 443.44700000000006 125.232 435.5760000000001 111.697 426.0130000000001 99.191 C 419.6860000000001 90.805 412.5510000000001 82.786 404.7530000000001 75.28200000000001 C 365.101 37.396 312.355 16.504 256.005 16.504 z" stroke-linecap="round" />
</g>
		<g transform="matrix(0.39 0 0 0.39 41.53 -47.77)"  >
<path style="stroke: none; stroke-width: 1; stroke-dasharray: none; stroke-linecap: butt; stroke-dashoffset: 0; stroke-linejoin: miter; stroke-miterlimit: 4; fill: rgb(89,83,79); fill-rule: nonzero; opacity: 1;" vector-effect="non-scaling-stroke"  transform=" translate(-362.49, -133.91)" d="M 256.005 3.924 L 256.005 44.826 C 311.694 44.826 361.276 74.399 392.76099999999997 120.156 C 410.34299999999996 145.609 422.18699999999995 176.065 426.38 209.243 C 427.557 218.071 428.145 227.119 428.145 236.24099999999999 L 428.145 237.933 C 428.072 244.84799999999998 427.63 251.91 426.895 258.825 L 442.93199999999996 260.811 L 467.429 263.90099999999995 C 467.57599999999996 262.35599999999994 467.79699999999997 260.73799999999994 467.86999999999995 259.1929999999999 C 468.60499999999996 251.54199999999992 468.97399999999993 243.89099999999993 468.97399999999993 236.24099999999993 C 468.97399999999993 227.33999999999992 468.53299999999996 218.51199999999994 467.5759999999999 209.83099999999993 C 465.7369999999999 191.80799999999994 461.9849999999999 174.29999999999993 456.3939999999999 157.45299999999992 C 454.4809999999999 151.34799999999993 452.2009999999999 145.3149999999999 449.6259999999999 139.3559999999999 C 443.59399999999994 124.93699999999991 436.16399999999993 111.18099999999991 427.3359999999999 98.3069999999999 C 421.3039999999999 89.33199999999991 414.5359999999999 80.79899999999991 407.25299999999993 72.70699999999991 C 366.94 28.347 313.238 3.924 256.005 3.924 z" stroke-linecap="round" />
</g>
		<g transform="matrix(0.39 0 0 0.39 86.49 22.23)"  >
<path style="stroke: none; stroke-width: 1; stroke-dasharray: none; stroke-linecap: butt; stroke-dashoffset: 0; stroke-linejoin: miter; stroke-miterlimit: 4; fill: rgb(108,73,36); fill-rule: nonzero; opacity: 1;" vector-effect="non-scaling-stroke"  transform=" translate(-477.48, -312.99)" d="M 442.958 367.782 L 457.206 367.782 C 487.343 367.782 512 343.125 512 312.988 L 512 312.988 C 512 282.851 487.343 258.194 457.206 258.194 L 442.958 258.194 L 442.958 367.782 z" stroke-linecap="round" />
</g>
		<g transform="matrix(0.39 0 0 0.39 72.58 22.2)"  >
<path style="stroke: none; stroke-width: 1; stroke-dasharray: none; stroke-linecap: butt; stroke-dashoffset: 0; stroke-linejoin: miter; stroke-miterlimit: 4; fill: rgb(255,107,107); fill-rule: nonzero; opacity: 1;" vector-effect="non-scaling-stroke"  transform=" translate(-441.89, -312.99)" d="M 390.021 225.238 L 390.021 400.735 C 390.021 409.565 397.182 416.718 406.004 416.718 L 461.353 416.718 C 479.178 416.718 493.75600000000003 402.139 493.75600000000003 384.32300000000004 L 493.75600000000003 241.658 C 493.75600000000003 223.833 479.177 209.255 461.353 209.255 L 406.004 209.255 C 397.182 209.255 390.021 216.416 390.021 225.238 z" stroke-linecap="round" />
</g>
		<g transform="matrix(0.39 0 0 0.39 53.69 22.2)"  >
<path style="stroke: none; stroke-width: 1; stroke-dasharray: none; stroke-linecap: butt; stroke-dashoffset: 0; stroke-linejoin: miter; stroke-miterlimit: 4; fill: rgb(5,1,1); fill-rule: nonzero; opacity: 0.1;" vector-effect="non-scaling-stroke"  transform=" translate(-393.5, -312.99)" d="M 367.032 225.238 L 367.032 400.735 C 367.032 409.565 374.193 416.718 383.015 416.718 L 419.144 416.718 C 419.689 413.41400000000004 419.97 409.986 419.97 406.459 L 419.97 209.255 L 383.01500000000004 209.255 C 374.193 209.255 367.032 216.416 367.032 225.238 z" stroke-linecap="round" />
</g>
		<g transform="matrix(0.39 0 0 0.39 50.27 22.18)"  >
<path style="stroke: none; stroke-width: 1; stroke-dasharray: none; stroke-linecap: butt; stroke-dashoffset: 0; stroke-linejoin: miter; stroke-miterlimit: 4; fill: rgb(108,73,36); fill-rule: nonzero; opacity: 1;" vector-effect="non-scaling-stroke"  transform=" translate(-384.73, -312.99)" d="M 384.729 441.215 L 384.729 441.215 C 397.676 441.215 408.268 430.62199999999996 408.268 417.676 L 408.268 208.299 C 408.268 195.352 397.67499999999995 184.76 384.729 184.76 L 384.729 184.76 C 371.782 184.76 361.19 195.35299999999998 361.19 208.29899999999998 L 361.19 417.676 C 361.19 430.623 371.783 441.215 384.729 441.215 z" stroke-linecap="round" />
</g>
		<g transform="matrix(0.39 0 0 0.39 34.39 -75.93)"  >
<path style="stroke: none; stroke-width: 1; stroke-dasharray: none; stroke-linecap: butt; stroke-dashoffset: 0; stroke-linejoin: miter; stroke-miterlimit: 4; fill: rgb(255,107,107); fill-rule: nonzero; opacity: 1;" vector-effect="non-scaling-stroke"  transform=" translate(-344.17, -61.72)" d="M 432.34 95.119 L 429.17699999999996 97.105 L 427.33799999999997 98.28200000000001 L 426.01399999999995 99.165 L 392.763 120.131 L 391.88 120.719 L 387.907 123.22 L 387.613 123.44 C 383.567 118.87899999999999 379.374 114.392 375.033 110.198 C 373.562 108.72699999999999 372.091 107.329 370.619 106.005 C 352.081 89.085 330.747 75.77 307.427 67.678 C 302.865 65.986 298.158 64.588 293.37600000000003 63.410999999999994 C 290.507 62.675 287.63800000000003 62.086999999999996 284.69500000000005 61.498 C 275.42600000000004 59.806 265.8620000000001 58.849999999999994 256.15200000000004 58.849999999999994 C 256.07800000000003 58.849999999999994 256.07800000000003 58.849999999999994 256.00500000000005 58.849999999999994 L 256.00500000000005 0 C 256.07900000000006 0 256.07900000000006 0 256.15200000000004 0 C 292.41900000000004 0 326.99500000000006 8.901 357.23 25.159 C 384.964 40.092999999999996 408.946 61.278999999999996 427.264 87.542 C 429.029 90.043 430.721 92.545 432.34 95.119 z" stroke-linecap="round" />
</g>
		<g transform="matrix(0.39 0 0 0.39 26.5 -66.45)"  >
<path style="stroke: none; stroke-width: 1; stroke-dasharray: none; stroke-linecap: butt; stroke-dashoffset: 0; stroke-linejoin: miter; stroke-miterlimit: 4; fill: rgb(102,42,24); fill-rule: nonzero; opacity: 1;" vector-effect="non-scaling-stroke"  transform=" translate(-323.94, -85.95)" d="M 256.005 48.431 L 256.005 58.876999999999995 C 256.079 58.876999999999995 256.079 58.876999999999995 256.152 58.876999999999995 C 265.863 58.876999999999995 275.426 59.833 284.695 61.525 C 287.638 62.114 290.507 62.702 293.376 63.437999999999995 C 298.15799999999996 64.615 302.866 66.01299999999999 307.42699999999996 67.705 C 338.251 78.371 365.68999999999994 98.234 387.61299999999994 123.467 L 387.9069999999999 123.247 L 391.8789999999999 120.746 C 358.995 79.107 309.781 49.093 256.005 48.431 z" stroke-linecap="round" />
</g>
		<g transform="matrix(0.39 0 0 0.39 -58.87 49.77)"  >
<path style="stroke: none; stroke-width: 1; stroke-dasharray: none; stroke-linecap: butt; stroke-dashoffset: 0; stroke-linejoin: miter; stroke-miterlimit: 4; fill: rgb(4,0,0); fill-rule: nonzero; opacity: 0.1;" vector-effect="non-scaling-stroke"  transform=" translate(-105.36, -383.51)" d="M 92.866 416.717 L 103.74 416.717 L 103.74 417.676 C 103.74 430.623 114.333 441.215 127.279 441.215 C 140.226 441.215 150.81799999999998 430.62199999999996 150.81799999999998 417.676 L 150.81799999999998 325.805 L 59.90599999999998 416.717 L 92.866 416.717 z" stroke-linecap="round" />
</g>
		<g transform="matrix(0.39 0 0 0.39 70.5 -0.97)"  >
<path style="stroke: none; stroke-width: 1; stroke-dasharray: none; stroke-linecap: butt; stroke-dashoffset: 0; stroke-linejoin: miter; stroke-miterlimit: 4; fill: rgb(4,0,0); fill-rule: nonzero; opacity: 0.1;" vector-effect="non-scaling-stroke"  transform=" translate(-436.59, -253.81)" d="M 493.756 272.336 L 493.756 241.65900000000002 C 493.756 225.966 482.448 212.81500000000003 467.58099999999996 209.88800000000003 C 467.57899999999995 209.87000000000003 467.57899999999995 209.85000000000002 467.57599999999996 209.83200000000002 C 465.73699999999997 191.80900000000003 461.98499999999996 174.30100000000002 456.39399999999995 157.454 C 454.48099999999994 151.34900000000002 452.20099999999996 145.316 449.626 139.357 C 443.594 124.938 436.164 111.182 427.33599999999996 98.30799999999999 L 432.33799999999997 95.145 C 425.79499999999996 84.806 418.35099999999994 75.24 410.21899999999994 66.40599999999999 L 370.59899999999993 106.02599999999998 C 376.57399999999996 111.48799999999999 382.26199999999994 117.31099999999998 387.61099999999993 123.46799999999999 L 387.9049999999999 123.24699999999999 C 406.07499999999993 147.59699999999998 417.1099999999999 177.17 418.21399999999994 209.24399999999997 C 418.21399999999994 209.24799999999996 418.21399999999994 209.25199999999998 418.21399999999994 209.25599999999997 L 408.26699999999994 209.25599999999997 L 408.26699999999994 208.29999999999998 C 408.26699999999994 195.35299999999998 397.6739999999999 184.76 384.72799999999995 184.76 C 371.78099999999995 184.76 361.18899999999996 195.35299999999998 361.18899999999996 208.29999999999998 L 361.18899999999996 417.677 C 361.18899999999996 430.624 371.782 441.216 384.72799999999995 441.216 C 397.67499999999995 441.216 408.26699999999994 430.623 408.26699999999994 417.677 L 408.26699999999994 416.718 L 419.14099999999996 416.718 L 461.35099999999994 416.718 C 479.17599999999993 416.718 493.75399999999996 402.139 493.75399999999996 384.32300000000004 L 493.75399999999996 353.64000000000004 C 504.915 343.591 512 329.094 512 312.987 C 512 296.88000000000005 504.915 282.384 493.756 272.336 z" stroke-linecap="round" />
</g>
</g>
</g>
<g transform="matrix(0 0 0 0 0 0)"  >
<g style=""   >
</g>
</g>
<g transform="matrix(0 0 0 0 0 0)"  >
<g style=""   >
</g>
</g>
<g transform="matrix(0 0 0 0 0 0)"  >
<g style=""   >
</g>
</g>
<g transform="matrix(0 0 0 0 0 0)"  >
<g style=""   >
</g>
</g>
<g transform="matrix(0.81 0 0 0.81 543.45 658.73)"  >
<g style=""   >
		<g transform="matrix(1 0 0 1 241.22 207.47)"  >
<path style="stroke: none; stroke-width: 1; stroke-dasharray: none; stroke-linecap: butt; stroke-dashoffset: 0; stroke-linejoin: miter; stroke-miterlimit: 4; fill: rgb(227,91,109); fill-rule: nonzero; opacity: 1;" vector-effect="non-scaling-stroke"  transform=" translate(-753.22, -719.47)" d="M 993.763 493.538 L 993.763 528.538 C 993.763 541.869 987.7230000000001 555.202 975.628 565.675 C 835.479 687.097 695.278 808.4699999999999 555.138 929.894 C 543.325 940.131 529.325 945.395 512.6840000000001 945.395 L 512.6840000000001 910.395 C 529.3280000000001 910.395 543.325 905.131 555.138 894.894 C 695.28 773.47 835.474 652.092 975.628 530.677 C 987.7230000000001 520.202 993.763 506.874 993.763 493.538 z" stroke-linecap="round" />
</g>
		<g transform="matrix(1 0 0 1 -240.53 207.39)"  >
<path style="stroke: none; stroke-width: 1; stroke-dasharray: none; stroke-linecap: butt; stroke-dashoffset: 0; stroke-linejoin: miter; stroke-miterlimit: 4; fill: rgb(227,91,109); fill-rule: nonzero; opacity: 1;" vector-effect="non-scaling-stroke"  transform=" translate(-271.47, -719.38)" d="M 30.239 528.367 L 30.239 524.867 L 30.239 523.117 L 30.239 519.617 L 30.239 516.117 L 30.239 514.367 L 30.239 510.86699999999996 L 30.239 507.36699999999996 L 30.239 505.61699999999996 L 30.239 502.11699999999996 L 30.239 498.61699999999996 L 30.239 496.86699999999996 L 30.239 493.36699999999996 C 30.239 508.07399999999996 36.94 522.68 49.275999999999996 533.386 C 187.72500000000002 653.4499999999999 326.325 773.382 464.838 893.406 C 477.84000000000003 904.6659999999999 493.57800000000003 909.872 512.691 910.4 L 512.691 945.4 C 493.583 944.872 477.84000000000003 939.6659999999999 464.838 928.406 C 326.325 808.382 187.725 688.45 49.276 568.386 C 36.93900000000001 557.6809999999999 30.239000000000004 543.074 30.239000000000004 528.367 z" stroke-linecap="round" />
</g>
		<g transform="matrix(1 0 0 1 0 -18.5)"  >
<path style="stroke: none; stroke-width: 1; stroke-dasharray: none; stroke-linecap: butt; stroke-dashoffset: 0; stroke-linejoin: miter; stroke-miterlimit: 4; fill: rgb(246,188,177); fill-rule: nonzero; opacity: 1;" vector-effect="non-scaling-stroke"  transform=" translate(-512, -493.5)" d="M 510.786 76.601 C 527.049 76.601 543.332 81.963 555.732 92.69800000000001 C 695.681 213.88600000000002 835.632 335.074 975.55 456.284 C 999.7909999999999 477.279 999.8449999999999 509.697 975.6289999999999 530.68 C 835.48 652.101 695.28 773.478 555.141 894.898 C 543.327 905.136 529.328 910.4 512.6899999999999 910.4 C 493.58099999999996 909.872 477.83699999999993 904.6659999999999 464.83599999999996 893.406 C 326.324 773.382 187.724 653.45 49.275 533.386 C 29.694 516.399 24.314999999999998 489.57599999999996 37.379999999999995 468.135 C 41.29899999999999 461.697 46.04899999999999 456.306 51.845 451.286 C 189.954 331.734 328.024 212.152 466.107 92.567 C 478.403 81.92699999999999 494.58500000000004 76.601 510.78600000000006 76.601 z" stroke-linecap="round" />
</g>
		<g transform="matrix(1 0 0 1 34.79 -113.43)"  >
<path style="stroke: none; stroke-width: 1; stroke-dasharray: none; stroke-linecap: butt; stroke-dashoffset: 0; stroke-linejoin: miter; stroke-miterlimit: 4; fill: rgb(218,77,94); fill-rule: nonzero; opacity: 1;" vector-effect="non-scaling-stroke"  transform=" translate(-546.78, -398.56)" d="M 664.943 356.196 L 664.943 372.99600000000004 C 664.941 375.33200000000005 664.187 376.35900000000004 661.567 377.081 C 584.966 398.084 508.41200000000003 419.175 431.843 440.24 C 430.875 440.511 429.85900000000004 440.668 428.627 440.928 L 428.627 424.128 C 429.856 423.865 430.873 423.71 431.843 423.44 C 508.411 402.376 584.9680000000001 381.28499999999997 661.567 360.281 C 664.188 359.559 664.941 358.533 664.943 356.196 z" stroke-linecap="round" />
</g>
		<g transform="matrix(1 0 0 1 152.94 -147.14)"  >
<path style="stroke: none; stroke-width: 1; stroke-dasharray: none; stroke-linecap: butt; stroke-dashoffset: 0; stroke-linejoin: miter; stroke-miterlimit: 4; fill: rgb(218,77,94); fill-rule: nonzero; opacity: 1;" vector-effect="non-scaling-stroke"  transform=" translate(-664.94, -364.86)" d="M 664.943 356.196 L 664.943 372.99600000000004 C 664.943 373.17900000000003 664.939 373.35300000000007 664.928 373.51900000000006 L 664.928 356.71900000000005 C 664.939 356.55400000000003 664.943 356.37800000000004 664.943 356.196" stroke-linecap="round" />
</g>
		<g transform="matrix(1 0 0 1 34.78 -113.18)"  >
<path style="stroke: none; stroke-width: 1; stroke-dasharray: none; stroke-linecap: butt; stroke-dashoffset: 0; stroke-linejoin: miter; stroke-miterlimit: 4; fill: rgb(218,77,94); fill-rule: nonzero; opacity: 1;" vector-effect="non-scaling-stroke"  transform=" translate(-546.78, -398.82)" d="M 664.928 356.72 L 664.93 373.52000000000004 C 664.8729999999999 374.44800000000004 664.661 375.14500000000004 664.2009999999999 375.689 L 664.2009999999999 358.889 C 664.661 358.342 664.8729999999999 357.646 664.9279999999999 356.72 M 664.199 358.889 L 664.199 375.689 C 663.9954325136939 375.9265311028062 663.7570625337464 376.1318596993947 663.492 376.298 L 663.492 359.498 C 663.775 359.315 664.0079999999999 359.115 664.199 358.889 M 663.492 359.498 L 663.492 376.298 C 663.1501726361427 376.5075376939715 662.7875737225427 376.6811294104639 662.41 376.816 L 662.41 360.01599999999996 C 662.7875737225427 359.88112941046387 663.1501726361427 359.7075376939715 663.492 359.498 M 662.41 360.014 L 662.41 376.814 C 662.1519999999999 376.908 661.872 376.997 661.567 377.08000000000004 C 584.966 398.083 508.41200000000003 419.17500000000007 431.843 440.23900000000003 C 430.875 440.51000000000005 429.85900000000004 440.66700000000003 428.627 440.927 L 428.627 424.127 C 429.856 423.86400000000003 430.873 423.709 431.843 423.439 C 508.411 402.375 584.9680000000001 381.284 661.567 360.28000000000003 C 661.872 360.19800000000004 662.152 360.107 662.41 360.014" stroke-linecap="round" />
</g>
		<g transform="matrix(1 0 0 1 37.04 -165.09)"  >
<path style="stroke: none; stroke-width: 1; stroke-dasharray: none; stroke-linecap: butt; stroke-dashoffset: 0; stroke-linejoin: miter; stroke-miterlimit: 4; fill: rgb(218,77,94); fill-rule: nonzero; opacity: 1;" vector-effect="non-scaling-stroke"  transform=" translate(-549.04, -346.91)" d="M 433.428 386.949 L 433.428 386.918 L 433.428 386.886 L 433.428 386.85400000000004 L 433.428 386.821 L 433.428 386.78900000000004 L 433.428 386.75800000000004 L 433.428 386.72700000000003 L 433.428 386.696 L 433.428 384.761 L 433.428 382.711 L 433.428 380.581 L 433.428 378.415 L 433.428 376.249 L 433.428 374.124 L 433.428 372.077 L 433.428 370.148 C 509.283 349.34700000000004 585.111 328.463 660.956 307.593 L 660.956 307.593 L 661.83 307.35400000000004 C 662.668 307.12500000000006 663.553 307.057 664.652 306.874 L 664.652 323.67400000000004 C 663.552 323.85600000000005 662.668 323.925 661.83 324.153 C 585.691 345.101 509.57500000000005 366.069 433.42800000000005 386.949 z" stroke-linecap="round" />
</g>
		<g transform="matrix(1 0 0 1 35.76 -164.73)"  >
<path style="stroke: none; stroke-width: 1; stroke-dasharray: none; stroke-linecap: butt; stroke-dashoffset: 0; stroke-linejoin: miter; stroke-miterlimit: 4; fill: rgb(218,77,94); fill-rule: nonzero; opacity: 1;" vector-effect="non-scaling-stroke"  transform=" translate(-547.77, -347.28)" d="M 664.65 306.875 L 664.65 323.675 C 663.5509999999999 323.857 662.667 323.926 661.827 324.15500000000003 C 585.107 345.26300000000003 508.40999999999997 366.38800000000003 431.68100000000004 387.42600000000004 C 431.391 387.50600000000003 431.12700000000007 387.59000000000003 430.88200000000006 387.68000000000006 L 430.88200000000006 370.88000000000005 C 431.144927074279 370.78526447884167 431.41146481280106 370.70086642146236 431.68100000000004 370.62700000000007 C 508.41 349.58900000000006 585.109 328.4630000000001 661.827 307.35600000000005 C 662.667 307.12600000000003 663.553 307.05800000000005 664.65 306.87500000000006" stroke-linecap="round" />
</g>
		<g transform="matrix(1 0 0 1 34.66 -146.5)"  >
<path style="stroke: none; stroke-width: 1; stroke-dasharray: none; stroke-linecap: butt; stroke-dashoffset: 0; stroke-linejoin: miter; stroke-miterlimit: 4; fill: rgb(240,142,145); fill-rule: nonzero; opacity: 1;" vector-effect="non-scaling-stroke"  transform=" translate(-546.66, -365.5)" d="M 664.652 306.875 C 664.7410000000001 307.904 664.8810000000001 308.776 664.8810000000001 309.643 C 664.883 311.58299999999997 664.883 313.522 664.883 315.46299999999997 C 664.883 320.31399999999996 664.878 325.16299999999995 664.878 330.013 C 664.8760000000001 338.743 664.885 347.471 664.941 356.197 C 664.938 358.534 664.1840000000001 359.56 661.565 360.282 C 584.964 381.28499999999997 508.40900000000005 402.376 431.84100000000007 423.441 C 430.87300000000005 423.712 429.8570000000001 423.86899999999997 428.62500000000006 424.12899999999996 C 428.55400000000003 423.03799999999995 428.4320000000001 422.16599999999994 428.4320000000001 421.299 C 428.43000000000006 418.38899999999995 428.4270000000001 415.47999999999996 428.4270000000001 412.57 L 428.42800000000005 400.928 C 428.42800000000005 392.199 428.42300000000006 383.466 428.37000000000006 374.737 C 428.37000000000006 372.451 429.0280000000001 371.35600000000005 431.6770000000001 370.625 C 508.40600000000006 349.587 585.1060000000001 328.462 661.8230000000001 307.354 C 662.6670000000001 307.126 663.5530000000001 307.058 664.652 306.875 z" stroke-linecap="round" />
</g>
		<g transform="matrix(1 0 0 1 34.48 -86.02)"  >
<path style="stroke: none; stroke-width: 1; stroke-dasharray: none; stroke-linecap: butt; stroke-dashoffset: 0; stroke-linejoin: miter; stroke-miterlimit: 4; fill: rgb(218,77,94); fill-rule: nonzero; opacity: 1;" vector-effect="non-scaling-stroke"  transform=" translate(-546.49, -425.97)" d="M 664.641 383.057 L 664.641 399.857 C 662.848 400.31100000000004 661.1949999999999 400.704 659.5609999999999 401.158 C 583.991 421.97 508.42099999999994 442.80600000000004 432.80999999999995 463.52000000000004 C 429.29099999999994 464.482 428.3349999999999 465.783 428.3349999999999 468.889 L 428.3349999999999 452.089 C 428.3349999999999 448.98199999999997 429.2919999999999 447.681 432.80999999999995 446.72 C 508.42099999999994 426.00600000000003 583.991 405.16700000000003 659.5609999999999 384.357 C 661.1929999999999 383.903 662.848 383.512 664.641 383.057 z" stroke-linecap="round" />
</g>
		<g transform="matrix(1 0 0 1 34.48 -86.02)"  >
<path style="stroke: none; stroke-width: 1; stroke-dasharray: none; stroke-linecap: butt; stroke-dashoffset: 0; stroke-linejoin: miter; stroke-miterlimit: 4; fill: rgb(218,77,94); fill-rule: nonzero; opacity: 1;" vector-effect="non-scaling-stroke"  transform=" translate(-546.49, -425.97)" d="M 664.641 383.057 L 664.641 399.857 C 662.848 400.31100000000004 661.1949999999999 400.704 659.5609999999999 401.158 C 583.991 421.97 508.42099999999994 442.80600000000004 432.80999999999995 463.52000000000004 C 432.37499999999994 463.63900000000007 431.9789999999999 463.76200000000006 431.6209999999999 463.89700000000005 L 431.6209999999999 447.09600000000006 C 431.9789999999999 446.9630000000001 432.3769999999999 446.83900000000006 432.80999999999995 446.7200000000001 C 508.42099999999994 426.0060000000001 583.991 405.1670000000001 659.5609999999999 384.3570000000001 C 661.1929999999999 383.9030000000001 662.848 383.51200000000006 664.641 383.0570000000001 M 431.62 447.096 L 431.62 463.896 C 431.1240780025172 464.0705152353526 430.6483465908148 464.29782030732883 430.201 464.574 L 430.201 447.774 C 430.6484572138046 447.49802313677424 431.12416630052144 447.2707287317045 431.62 447.096 M 430.201 447.774 L 430.201 464.574 C 429.8608610979474 464.78570017302843 429.5547267267752 465.04766758095883 429.293 465.351 L 429.293 448.551 C 429.538 448.264 429.837 448.007 430.201 447.774 M 429.293 448.552 L 429.293 465.35200000000003 C 428.698 466.05800000000005 428.426 466.956 428.355 468.163 L 428.355 451.363 C 428.427 450.155 428.699 449.256 429.293 448.552 M 428.354 451.362 L 428.354 468.16200000000003 C 428.34 468.39200000000005 428.335 468.63500000000005 428.335 468.891 L 428.335 452.091 C 428.335 451.83500000000004 428.342 451.591 428.354 451.362" stroke-linecap="round" />
</g>
		<g transform="matrix(1 0 0 1 99.77 19.62)"  >
<path style="stroke: none; stroke-width: 1; stroke-dasharray: none; stroke-linecap: butt; stroke-dashoffset: 0; stroke-linejoin: miter; stroke-miterlimit: 4; fill: rgb(218,77,94); fill-rule: nonzero; opacity: 1;" vector-effect="non-scaling-stroke"  transform=" translate(-611.76, -531.62)" d="M 614.85 539.921 C 612.957 539.928 611.086 539.9910000000001 609.231 540.114 C 608.975 534.533 608.62 528.9580000000001 608.327 523.378 C 610.496839785638 523.2134379012348 612.6719392720762 523.1277147655172 614.8479999999998 523.1210000000001 L 615.202 523.1210000000001 L 615.202 539.921 L 614.85 539.921 z" stroke-linecap="round" />
</g>
		<g transform="matrix(1 0 0 1 97.47 19.89)"  >
<path style="stroke: none; stroke-width: 1; stroke-dasharray: none; stroke-linecap: butt; stroke-dashoffset: 0; stroke-linejoin: miter; stroke-miterlimit: 4; fill: rgb(218,77,94); fill-rule: nonzero; opacity: 1;" vector-effect="non-scaling-stroke"  transform=" translate(-609.47, -531.89)" d="M 615.202 523.121 L 615.202 539.9209999999999 L 614.848 539.9209999999999 C 611.0659999999999 539.935 607.3549999999999 540.1729999999999 603.737 540.6659999999999 L 603.737 523.866 C 607.357 523.371 611.0659999999999 523.135 614.848 523.121 L 615.202 523.121" stroke-linecap="round" />
</g>
		<g transform="matrix(1 0 0 1 82.62 24.05)"  >
<path style="stroke: none; stroke-width: 1; stroke-dasharray: none; stroke-linecap: butt; stroke-dashoffset: 0; stroke-linejoin: miter; stroke-miterlimit: 4; fill: rgb(218,77,94); fill-rule: nonzero; opacity: 1;" vector-effect="non-scaling-stroke"  transform=" translate(-594.62, -536.04)" d="M 609.23 540.114 C 598.7520000000001 540.807 588.937 543.426 580.215 548.711 C 580.076 542.9060000000001 580.015 537.918 580.0120000000001 532.037 C 588.532 526.8190000000001 598.1060000000001 524.1700000000001 608.325 523.378 C 608.619 528.9580000000001 608.976 534.533 609.23 540.114 z" stroke-linecap="round" />
</g>
		<g transform="matrix(1 0 0 1 90.59 21.57)"  >
<path style="stroke: none; stroke-width: 1; stroke-dasharray: none; stroke-linecap: butt; stroke-dashoffset: 0; stroke-linejoin: miter; stroke-miterlimit: 4; fill: rgb(218,77,94); fill-rule: nonzero; opacity: 1;" vector-effect="non-scaling-stroke"  transform=" translate(-602.59, -533.57)" d="M 615.202 523.121 L 615.202 539.9209999999999 L 614.848 539.9209999999999 C 611.0659999999999 539.935 607.3549999999999 540.1729999999999 603.737 540.6659999999999 L 603.737 523.866 C 607.357 523.371 611.0659999999999 523.135 614.848 523.121 L 615.202 523.121 M 603.735 523.866 L 603.735 540.6659999999999 C 598.9730000000001 541.3169999999999 594.3720000000001 542.414 589.972 544.0279999999999 L 589.972 527.2269999999999 C 594.3729999999999 525.6129999999998 598.975 524.5179999999999 603.735 523.8659999999999" stroke-linecap="round" />
</g>
		<g transform="matrix(1 0 0 1 72.55 26.31)"  >
<path style="stroke: none; stroke-width: 1; stroke-dasharray: none; stroke-linecap: butt; stroke-dashoffset: 0; stroke-linejoin: miter; stroke-miterlimit: 4; fill: rgb(218,77,94); fill-rule: nonzero; opacity: 1;" vector-effect="non-scaling-stroke"  transform=" translate(-584.55, -538.31)" d="M 589.974 527.229 L 589.974 544.029 C 586.172862901253 545.4185253526697 582.5338637941957 547.2167334251978 579.1210000000001 549.392 L 579.1210000000001 532.591 C 582.5341170384049 530.4164509924037 586.1730731808373 528.6185994457602 589.974 527.229" stroke-linecap="round" />
</g>
		<g transform="matrix(1 0 0 1 -83.69 5.65)"  >
<path style="stroke: none; stroke-width: 1; stroke-dasharray: none; stroke-linecap: butt; stroke-dashoffset: 0; stroke-linejoin: miter; stroke-miterlimit: 4; fill: rgb(218,77,94); fill-rule: nonzero; opacity: 1;" vector-effect="non-scaling-stroke"  transform=" translate(-428.31, -517.64)" d="M 428.354 470.579 L 428.354 487.379 C 428.354 513.157 428.258 538.9350000000001 428.258 564.71 L 428.258 547.9100000000001 C 428.258 522.1340000000001 428.354 496.3570000000001 428.354 470.57900000000006 z" stroke-linecap="round" />
</g>
		<g transform="matrix(1 0 0 1 -83.69 5.65)"  >
<path style="stroke: none; stroke-width: 1; stroke-dasharray: none; stroke-linecap: butt; stroke-dashoffset: 0; stroke-linejoin: miter; stroke-miterlimit: 4; fill: rgb(218,77,94); fill-rule: nonzero; opacity: 1;" vector-effect="non-scaling-stroke"  transform=" translate(-428.31, -517.64)" d="M 428.354 470.579 L 428.354 487.379 C 428.354 513.157 428.258 538.9350000000001 428.258 564.71 L 428.258 547.9100000000001 C 428.258 522.1340000000001 428.354 496.3570000000001 428.354 470.57900000000006" stroke-linecap="round" />
</g>
		<g transform="matrix(1 0 0 1 128.08 34.2)"  >
<path style="stroke: none; stroke-width: 1; stroke-dasharray: none; stroke-linecap: butt; stroke-dashoffset: 0; stroke-linejoin: miter; stroke-miterlimit: 4; fill: rgb(218,77,94); fill-rule: nonzero; opacity: 1;" vector-effect="non-scaling-stroke"  transform=" translate(-640.08, -546.2)" d="M 616.641 539.933 C 616.1617146673677 539.9245087570354 615.6823602922555 539.9205085814434 615.203 539.921 L 615.203 523.1210000000001 C 615.682 523.1210000000001 616.163 523.1240000000001 616.641 523.1320000000001 C 629.674 523.3320000000001 641.971 526.238 652.4639999999999 533.442 C 660.914 539.245 664.909 545.916 664.9609999999999 552.486 L 664.9609999999999 569.286 C 664.9089999999999 562.7189999999999 660.9139999999999 556.045 652.4639999999999 550.2429999999999 C 641.9709999999999 543.0379999999999 629.674 540.132 616.641 539.933 z" stroke-linecap="round" />
</g>
		<g transform="matrix(1 0 0 1 128.08 34.2)"  >
<path style="stroke: none; stroke-width: 1; stroke-dasharray: none; stroke-linecap: butt; stroke-dashoffset: 0; stroke-linejoin: miter; stroke-miterlimit: 4; fill: rgb(218,77,94); fill-rule: nonzero; opacity: 1;" vector-effect="non-scaling-stroke"  transform=" translate(-640.08, -546.2)" d="M 664.961 552.484 L 664.961 569.284 C 664.909 562.717 660.914 556.043 652.464 550.241 C 641.971 543.037 629.6740000000001 540.131 616.6410000000001 539.931 C 616.1617146673678 539.9225087570354 615.6823602922556 539.9185085814435 615.2030000000001 539.9190000000001 L 615.2030000000001 523.1190000000001 C 615.6820000000001 523.1190000000001 616.1630000000001 523.1220000000002 616.6410000000001 523.1300000000001 C 629.6740000000001 523.3300000000002 641.9710000000001 526.2360000000001 652.464 533.44 C 660.9140000000001 539.243 664.9090000000001 545.9150000000001 664.961 552.484" stroke-linecap="round" />
</g>
		<g transform="matrix(1 0 0 1 129.64 63.7)"  >
<path style="stroke: none; stroke-width: 1; stroke-dasharray: none; stroke-linecap: butt; stroke-dashoffset: 0; stroke-linejoin: miter; stroke-miterlimit: 4; fill: rgb(218,77,94); fill-rule: nonzero; opacity: 1;" vector-effect="non-scaling-stroke"  transform=" translate(-641.65, -575.71)" d="M 664.961 552.484 L 664.961 569.284 C 665.024 577.213 659.336 584.992 648.795 590.912 C 639.593 596.0880000000001 629.3309999999999 598.5310000000001 618.334 598.933 L 618.334 582.132 C 629.329 581.732 639.593 579.2869999999999 648.795 574.111 C 659.336 568.192 665.021 560.413 664.961 552.484 z" stroke-linecap="round" />
</g>
		<g transform="matrix(1 0 0 1 150.37 55.35)"  >
<path style="stroke: none; stroke-width: 1; stroke-dasharray: none; stroke-linecap: butt; stroke-dashoffset: 0; stroke-linejoin: miter; stroke-miterlimit: 4; fill: rgb(218,77,94); fill-rule: nonzero; opacity: 1;" vector-effect="non-scaling-stroke"  transform=" translate(-662.36, -567.35)" d="M 664.961 552.484 L 664.961 569.284 C 664.9636746107803 569.6562043504621 664.9543364169307 570.0283980767564 664.933 570.4 L 664.933 553.6 C 664.9543364169307 553.2283980767564 664.9636746107803 552.8562043504621 664.961 552.484 M 664.931 553.6 L 664.931 570.4 C 664.6840000000001 574.477 662.923 578.495 659.767 582.215 L 659.767 565.4150000000001 C 662.9240000000001 561.695 664.6850000000001 557.6790000000001 664.931 553.6" stroke-linecap="round" />
</g>
		<g transform="matrix(1 0 0 1 138.01 68.13)"  >
<path style="stroke: none; stroke-width: 1; stroke-dasharray: none; stroke-linecap: butt; stroke-dashoffset: 0; stroke-linejoin: miter; stroke-miterlimit: 4; fill: rgb(218,77,94); fill-rule: nonzero; opacity: 1;" vector-effect="non-scaling-stroke"  transform=" translate(-650.02, -580.13)" d="M 659.769 565.417 L 659.769 582.217 C 657.596 584.779 654.765 587.198 651.315 589.405 L 651.315 572.603 C 654.7650000000001 570.3979999999999 657.596 567.978 659.769 565.4169999999999 M 651.313 572.604 L 651.313 589.4050000000001 C 650.4872673150926 589.9305845619259 649.647285305867 590.4334400084969 648.794 590.9130000000001 C 646.0599085231019 592.4482782366373 643.207097526981 593.7618219704038 640.263 594.8410000000001 L 640.263 578.0410000000002 C 643.2077793107427 576.963474563419 646.060720889857 575.6498707042277 648.794 574.1130000000002 C 649.6473381833115 573.6331820836914 650.4873222439874 573.1299919496859 651.313 572.6040000000002" stroke-linecap="round" />
</g>
		<g transform="matrix(1 0 0 1 117.3 76.49)"  >
<path style="stroke: none; stroke-width: 1; stroke-dasharray: none; stroke-linecap: butt; stroke-dashoffset: 0; stroke-linejoin: miter; stroke-miterlimit: 4; fill: rgb(218,77,94); fill-rule: nonzero; opacity: 1;" vector-effect="non-scaling-stroke"  transform=" translate(-629.3, -588.49)" d="M 640.264 578.04 L 640.264 594.8399999999999 C 635.809 596.478 631.158 597.5959999999999 626.332 598.2539999999999 L 626.332 581.454 C 631.156 580.7959999999999 635.81 579.678 640.264 578.04 M 626.332 581.454 L 626.332 598.2539999999999 C 623.6789212045489 598.6131136812571 621.0096242507431 598.840060659075 618.334 598.9339999999999 L 618.334 582.1329999999998 C 621.0096372829629 582.0398884610576 623.6789588320194 581.8132731407512 626.332 581.4539999999998" stroke-linecap="round" />
</g>
		<g transform="matrix(1 0 0 1 103.16 40.63)"  >
<path style="stroke: none; stroke-width: 1; stroke-dasharray: none; stroke-linecap: butt; stroke-dashoffset: 0; stroke-linejoin: miter; stroke-miterlimit: 4; fill: rgb(240,154,154); fill-rule: nonzero; opacity: 1;" vector-effect="non-scaling-stroke"  transform=" translate(-615.16, -552.63)" d="M 615.199 523.121 C 615.679 523.121 616.1619999999999 523.124 616.64 523.131 C 629.672 523.332 641.97 526.2379999999999 652.463 533.442 C 660.9119999999999 539.245 664.908 545.916 664.959 552.486 C 665.021 560.415 659.334 568.194 648.7929999999999 574.114 C 639.5909999999999 579.2900000000001 629.329 581.7330000000001 618.3319999999999 582.135 L 617.8879999999999 582.135 C 617.477 582.135 617.069 582.134 616.6589999999999 582.13 C 599.5959999999999 581.984 583.7809999999998 578.743 572.0149999999999 566.832 C 567.4999999999999 562.259 565.3209999999999 557.241 565.3569999999999 552.287 C 565.3979999999999 546.308 568.6719999999999 540.4200000000001 574.9799999999999 535.5160000000001 C 586.3829999999999 526.647 600.0639999999999 523.176 614.8489999999999 523.1210000000001 L 615.199 523.1210000000001 z" stroke-linecap="round" />
</g>
		<g transform="matrix(1 0 0 1 82.96 70.88)"  >
<path style="stroke: none; stroke-width: 1; stroke-dasharray: none; stroke-linecap: butt; stroke-dashoffset: 0; stroke-linejoin: miter; stroke-miterlimit: 4; fill: rgb(218,77,94); fill-rule: nonzero; opacity: 1;" vector-effect="non-scaling-stroke"  transform=" translate(-594.95, -582.88)" d="M 617.89 582.135 L 617.89 598.935 C 617.479 598.935 617.071 598.934 616.661 598.929 C 599.598 598.784 583.7819999999999 595.543 572.0169999999999 583.632 L 572.0169999999999 566.832 C 583.78 578.742 599.5959999999999 581.984 616.661 582.129 C 617.069 582.133 617.4789999999999 582.135 617.89 582.135 z" stroke-linecap="round" />
</g>
		<g transform="matrix(1 0 0 1 82.96 70.88)"  >
<path style="stroke: none; stroke-width: 1; stroke-dasharray: none; stroke-linecap: butt; stroke-dashoffset: 0; stroke-linejoin: miter; stroke-miterlimit: 4; fill: rgb(218,77,94); fill-rule: nonzero; opacity: 1;" vector-effect="non-scaling-stroke"  transform=" translate(-594.95, -582.88)" d="M 617.89 582.135 L 617.89 598.935 C 617.479 598.935 617.071 598.934 616.661 598.929 C 599.598 598.784 583.7819999999999 595.543 572.0169999999999 583.632 L 572.0169999999999 566.832 C 583.78 578.742 599.5959999999999 581.984 616.661 582.129 C 617.069 582.133 617.4789999999999 582.135 617.89 582.135" stroke-linecap="round" />
</g>
		<g transform="matrix(1 0 0 1 103.27 72.06)"  >
<path style="stroke: none; stroke-width: 1; stroke-dasharray: none; stroke-linecap: butt; stroke-dashoffset: 0; stroke-linejoin: miter; stroke-miterlimit: 4; fill: rgb(218,77,94); fill-rule: nonzero; opacity: 1;" vector-effect="non-scaling-stroke"  transform=" translate(-615.26, -584.06)" d="M 539.445 569.734 L 539.445 552.933 C 539.445 569.321 548.6980000000001 582 564.1930000000001 591.141 C 580.1310000000001 600.549 596.8600000000001 605.106 614.0060000000001 605.106 C 626.3560000000001 605.106 638.9230000000001 602.7429999999999 651.5680000000001 598.127 C 677.575 588.6379999999999 691.2540000000001 571.843 691.0830000000001 546.212 L 691.0830000000001 563.012 C 691.2540000000001 588.6429999999999 677.5760000000001 605.439 651.5680000000001 614.9269999999999 C 638.9230000000001 619.5429999999999 626.3560000000001 621.906 614.0060000000001 621.906 C 596.8600000000001 621.906 580.133 617.3489999999999 564.1930000000001 607.943 C 548.6990000000001 598.802 539.445 586.121 539.445 569.7339999999999 z" stroke-linecap="round" />
</g>
		<g transform="matrix(1 0 0 1 167.32 64.7)"  >
<path style="stroke: none; stroke-width: 1; stroke-dasharray: none; stroke-linecap: butt; stroke-dashoffset: 0; stroke-linejoin: miter; stroke-miterlimit: 4; fill: rgb(218,77,94); fill-rule: nonzero; opacity: 1;" vector-effect="non-scaling-stroke"  transform=" translate(-679.32, -576.7)" d="M 691.081 546.212 L 691.081 563.012 C 691.091 564.5469999999999 691.051 566.0509999999999 690.962 567.525 L 690.962 550.7239999999999 C 691.051 549.251 691.091 547.747 691.081 546.212 M 690.962 550.724 L 690.962 567.5250000000001 C 690.264 579.1050000000001 686.511 588.7440000000001 679.862 596.6010000000001 L 679.862 579.8010000000002 C 686.511 571.9420000000001 690.264 562.3040000000002 690.962 550.7240000000002 M 679.862 579.801 L 679.862 596.601 C 676.496 600.582 672.3829999999999 604.105 667.549 607.194 L 667.549 590.3929999999999 C 672.385 587.3039999999999 676.496 583.7799999999999 679.862 579.8009999999999" stroke-linecap="round" />
</g>
		<g transform="matrix(1 0 0 1 147.66 90.62)"  >
<path style="stroke: none; stroke-width: 1; stroke-dasharray: none; stroke-linecap: butt; stroke-dashoffset: 0; stroke-linejoin: miter; stroke-miterlimit: 4; fill: rgb(218,77,94); fill-rule: nonzero; opacity: 1;" vector-effect="non-scaling-stroke"  transform=" translate(-659.67, -602.62)" d="M 667.551 590.393 L 667.551 607.1940000000001 C 662.947 610.1350000000001 657.682 612.6790000000001 651.782 614.8480000000001 L 651.782 598.047 C 657.6840000000001 595.879 662.945 593.335 667.551 590.393" stroke-linecap="round" />
</g>
		<g transform="matrix(1 0 0 1 83.62 75.42)"  >
<path style="stroke: none; stroke-width: 1; stroke-dasharray: none; stroke-linecap: butt; stroke-dashoffset: 0; stroke-linejoin: miter; stroke-miterlimit: 4; fill: rgb(218,77,94); fill-rule: nonzero; opacity: 1;" vector-effect="non-scaling-stroke"  transform=" translate(-595.62, -587.42)" d="M 651.784 598.047 L 651.784 614.8480000000001 L 651.568 614.9280000000001 C 643.531 617.8640000000001 635.525 619.8870000000001 627.585 620.9700000000001 L 627.585 604.1700000000002 C 635.5250000000001 603.0870000000002 643.5310000000001 601.0620000000002 651.568 598.1280000000002 L 651.784 598.0470000000001 M 627.585 604.17 L 627.585 620.9699999999999 C 623.0350000000001 621.5919999999999 618.5070000000001 621.9079999999999 614.0070000000001 621.9079999999999 C 596.8610000000001 621.9079999999999 580.134 617.3509999999999 564.195 607.9449999999999 C 548.701 598.8019999999999 539.447 586.1229999999999 539.447 569.7359999999999 L 539.447 552.9349999999998 C 539.447 569.3229999999999 548.699 582.0019999999998 564.195 591.1429999999998 C 580.133 600.5509999999998 596.8610000000001 605.1079999999998 614.0070000000001 605.1079999999998 C 618.5050000000001 605.1059999999999 623.0350000000001 604.7919999999998 627.585 604.1699999999998" stroke-linecap="round" />
</g>
		<g transform="matrix(1 0 0 1 -185.25 98.34)"  >
<path style="stroke: none; stroke-width: 1; stroke-dasharray: none; stroke-linecap: butt; stroke-dashoffset: 0; stroke-linejoin: miter; stroke-miterlimit: 4; fill: rgb(218,77,94); fill-rule: nonzero; opacity: 1;" vector-effect="non-scaling-stroke"  transform=" translate(-326.75, -610.34)" d="M 313.48 624.167 C 313.48900000000003 615.768 313.48900000000003 615.768 313.48 607.3670000000001 C 313.98983080678363 606.9993345263725 314.50488326282647 606.6389644907854 315.02500000000003 606.2860000000001 C 322.78900000000004 601.017 331.17300000000006 597.8950000000001 340.016 596.5050000000001 C 338.201 607.7870000000001 338.194 607.9010000000001 337.773 613.6960000000001 C 329.752 615.2410000000001 322.12800000000004 618.2650000000001 315.023 623.0860000000001 C 314.50800000000004 623.4380000000001 313.99300000000005 623.7980000000001 313.48 624.1670000000001 z" stroke-linecap="round" />
</g>
		<g transform="matrix(1 0 0 1 -177.28 94.34)"  >
<path style="stroke: none; stroke-width: 1; stroke-dasharray: none; stroke-linecap: butt; stroke-dashoffset: 0; stroke-linejoin: miter; stroke-miterlimit: 4; fill: rgb(218,77,94); fill-rule: nonzero; opacity: 1;" vector-effect="non-scaling-stroke"  transform=" translate(-334.72, -606.35)" d="M 341.374 596.304 L 341.374 613.106 C 336.812 613.728 332.367 614.804 328.062 616.387 L 328.062 599.587 C 332.367 598.004 336.813 596.928 341.374 596.304" stroke-linecap="round" />
</g>
		<g transform="matrix(1 0 0 1 -193.96 102.37)"  >
<path style="stroke: none; stroke-width: 1; stroke-dasharray: none; stroke-linecap: butt; stroke-dashoffset: 0; stroke-linejoin: miter; stroke-miterlimit: 4; fill: rgb(218,77,94); fill-rule: nonzero; opacity: 1;" vector-effect="non-scaling-stroke"  transform=" translate(-318.04, -614.36)" d="M 328.063 599.585 L 328.063 616.3860000000001 C 323.9951998767231 617.8792658830964 320.10222436904746 619.8113352091281 316.453 622.148 L 316.453 605.347 C 320.1027791784465 603.0113154367107 323.9956450407218 601.0793005272852 328.063 599.585 M 316.451 605.348 L 316.451 622.15 C 315.97200000000004 622.456 315.49800000000005 622.766 315.02500000000003 623.088 C 314.418 623.502 313.812 623.928 313.211 624.365 C 311.17400000000004 625.855 309.444 627.457 308.017 629.136 L 308.017 612.336 C 309.445 610.655 311.174 609.053 313.211 607.564 C 313.80915715039674 607.1294869773906 314.4138938719069 606.7041043662291 315.02500000000003 606.288 C 315.49800000000005 605.966 315.973 605.653 316.451 605.348" stroke-linecap="round" />
</g>
		<g transform="matrix(1 0 0 1 -203.77 112.59)"  >
<path style="stroke: none; stroke-width: 1; stroke-dasharray: none; stroke-linecap: butt; stroke-dashoffset: 0; stroke-linejoin: miter; stroke-miterlimit: 4; fill: rgb(218,77,94); fill-rule: nonzero; opacity: 1;" vector-effect="non-scaling-stroke"  transform=" translate(-308.24, -624.59)" d="M 313.211 624.363 C 306.40500000000003 629.3430000000001 303.02000000000004 635.567 302.982 641.807 L 302.982 625.006 C 303.01800000000003 618.765 306.40400000000005 612.543 313.211 607.5609999999999 C 313.301 607.4979999999999 313.39 607.4309999999999 313.481 607.367 C 313.491 615.766 313.491 615.766 313.481 624.1669999999999 C 313.39 624.233 313.301 624.2989999999999 313.211 624.3629999999999 z" stroke-linecap="round" />
</g>
		<g transform="matrix(1 0 0 1 -202.29 111.58)"  >
<path style="stroke: none; stroke-width: 1; stroke-dasharray: none; stroke-linecap: butt; stroke-dashoffset: 0; stroke-linejoin: miter; stroke-miterlimit: 4; fill: rgb(218,77,94); fill-rule: nonzero; opacity: 1;" vector-effect="non-scaling-stroke"  transform=" translate(-309.72, -623.58)" d="M 316.451 605.348 L 316.451 622.15 C 315.97200000000004 622.456 315.49800000000005 622.766 315.02500000000003 623.088 C 314.418 623.502 313.812 623.928 313.211 624.365 C 311.17400000000004 625.855 309.444 627.457 308.017 629.136 L 308.017 612.336 C 309.445 610.655 311.174 609.053 313.211 607.564 C 313.80915715039674 607.1294869773906 314.4138938719069 606.7041043662291 315.02500000000003 606.288 C 315.49800000000005 605.966 315.973 605.653 316.451 605.348 M 308.017 612.336 L 308.017 629.136 C 304.916 632.789 303.255 636.814 303.012 640.87 L 303.012 624.07 C 303.255 620.013 304.916 615.989 308.017 612.336 M 303.012 624.07 L 303.012 640.87 C 302.994 641.183 302.984 641.496 302.983 641.808 L 302.983 625.007 C 302.983 624.6959999999999 302.993 624.3839999999999 303.012 624.0699999999999" stroke-linecap="round" />
</g>
		<g transform="matrix(1 0 0 1 -129.64 107.34)"  >
<path style="stroke: none; stroke-width: 1; stroke-dasharray: none; stroke-linecap: butt; stroke-dashoffset: 0; stroke-linejoin: miter; stroke-miterlimit: 4; fill: rgb(218,77,94); fill-rule: nonzero; opacity: 1;" vector-effect="non-scaling-stroke"  transform=" translate(-382.36, -619.34)" d="M 366.605 613.722 C 365.17396808274134 613.4896686500152 363.73833461926847 613.286626202441 362.299 613.1129999999999 C 362.29900000000004 607.511 362.31000000000006 601.91 362.28400000000005 596.309 C 363.71700000000004 596.483 365.1580000000001 596.687 366.60400000000004 596.922 C 377.833 598.746 387.93300000000005 602.8050000000001 395.494 610.524 C 400.175 615.308 402.46000000000004 620.491 402.43600000000004 625.576 L 402.43600000000004 642.376 C 402.458 637.292 400.17400000000004 632.11 395.494 627.3249999999999 C 387.935 619.6039999999999 377.834 615.5459999999999 366.605 613.722 z" stroke-linecap="round" />
</g>
		<g transform="matrix(1 0 0 1 -140.1 107)"  >
<path style="stroke: none; stroke-width: 1; stroke-dasharray: none; stroke-linecap: butt; stroke-dashoffset: 0; stroke-linejoin: miter; stroke-miterlimit: 4; fill: rgb(218,77,94); fill-rule: nonzero; opacity: 1;" vector-effect="non-scaling-stroke"  transform=" translate(-371.91, -619)" d="M 402.438 625.574 L 402.438 642.3739999999999 C 402.461 637.29 400.17699999999996 632.108 395.497 627.3229999999999 C 387.935 619.6039999999998 377.836 615.5459999999998 366.607 613.7199999999999 C 361.516 612.8949999999999 356.514 612.4479999999999 351.62100000000004 612.435 C 351.249 612.435 351.038 612.435 350.82000000000005 612.438 C 347.66067676837406 612.4572374771769 344.5058503034463 612.6793613098055 341.375 613.103 L 341.37500000000006 596.3019999999999 C 344.5059265352016 595.8792286269323 347.6607186511337 595.6574412298991 350.82000000000005 595.6379999999999 C 351.03700000000003 595.6349999999999 351.25100000000003 595.6349999999999 351.62100000000004 595.6349999999999 C 356.51500000000004 595.6459999999998 361.51700000000005 596.0949999999999 366.607 596.9199999999998 C 377.836 598.7439999999998 387.93600000000004 602.8029999999999 395.497 610.5209999999998 C 400.176 615.3079999999999 402.461 620.4889999999998 402.438 625.5739999999998" stroke-linecap="round" />
</g>
		<g transform="matrix(1 0 0 1 -184.15 136.31)"  >
<path style="stroke: none; stroke-width: 1; stroke-dasharray: none; stroke-linecap: butt; stroke-dashoffset: 0; stroke-linejoin: miter; stroke-miterlimit: 4; fill: rgb(218,77,94); fill-rule: nonzero; opacity: 1;" vector-effect="non-scaling-stroke"  transform=" translate(-327.85, -648.31)" d="M 352.716 654.808 L 352.716 671.609 C 338.29200000000003 671.1890000000001 324.865 668.176 313.476 659.842 C 306.468 654.706 302.944 648.2479999999999 302.984 641.809 L 302.984 625.0079999999999 C 302.94399999999996 631.4469999999999 306.46799999999996 637.906 313.476 643.0409999999999 C 324.865 651.376 338.291 654.3879999999999 352.716 654.808 z" stroke-linecap="round" />
</g>
		<g transform="matrix(1 0 0 1 -184.15 136.31)"  >
<path style="stroke: none; stroke-width: 1; stroke-dasharray: none; stroke-linecap: butt; stroke-dashoffset: 0; stroke-linejoin: miter; stroke-miterlimit: 4; fill: rgb(218,77,94); fill-rule: nonzero; opacity: 1;" vector-effect="non-scaling-stroke"  transform=" translate(-327.85, -648.31)" d="M 352.716 654.808 L 352.716 671.609 C 338.29200000000003 671.1890000000001 324.865 668.176 313.476 659.842 C 306.468 654.706 302.944 648.2479999999999 302.984 641.809 L 302.984 625.0079999999999 C 302.94399999999996 631.4469999999999 306.46799999999996 637.906 313.476 643.0409999999999 C 324.865 651.376 338.291 654.3879999999999 352.716 654.808" stroke-linecap="round" />
</g>
		<g transform="matrix(1 0 0 1 -134.42 136.59)"  >
<path style="stroke: none; stroke-width: 1; stroke-dasharray: none; stroke-linecap: butt; stroke-dashoffset: 0; stroke-linejoin: miter; stroke-miterlimit: 4; fill: rgb(218,77,94); fill-rule: nonzero; opacity: 1;" vector-effect="non-scaling-stroke"  transform=" translate(-377.58, -648.59)" d="M 402.439 625.573 L 402.439 642.3729999999999 C 402.41 648.512 399.019 654.51 392.42100000000005 659.5079999999999 C 381.05000000000007 668.1139999999999 367.47200000000004 671.1619999999999 352.71500000000003 671.6089999999999 L 352.71500000000003 654.8079999999999 C 367.47200000000004 654.3649999999999 381.05 651.3169999999999 392.42100000000005 642.7079999999999 C 399.02000000000004 637.7089999999998 402.41 631.7119999999999 402.4390000000001 625.5729999999999 z" stroke-linecap="round" />
</g>
		<g transform="matrix(1 0 0 1 -116.29 131.74)"  >
<path style="stroke: none; stroke-width: 1; stroke-dasharray: none; stroke-linecap: butt; stroke-dashoffset: 0; stroke-linejoin: miter; stroke-miterlimit: 4; fill: rgb(218,77,94); fill-rule: nonzero; opacity: 1;" vector-effect="non-scaling-stroke"  transform=" translate(-395.71, -643.74)" d="M 402.439 625.573 L 402.439 642.3729999999999 C 402.437 642.684 402.427 642.991 402.40900000000005 643.3 L 402.40900000000005 626.5 C 402.427 626.19 402.43800000000005 625.883 402.439 625.573 M 402.408 626.5 L 402.408 643.3 C 402.17 647.2959999999999 400.50100000000003 651.216 397.444 654.819 L 397.444 638.0169999999999 C 400.5 634.4159999999999 402.17 630.496 402.408 626.4999999999999 M 397.443 638.017 L 397.443 654.8190000000001 C 396.051 656.455 394.37899999999996 658.0260000000001 392.41999999999996 659.5090000000001 C 391.30593849339147 660.3525452742703 390.15904754589445 661.1518328572263 388.98199999999997 661.9050000000001 L 388.98199999999997 645.1050000000001 C 390.1595724971956 644.3526189744126 391.3064942814558 643.5533099007979 392.41999999999996 642.7090000000002 C 394.37899999999996 641.2250000000001 396.054 639.6530000000001 397.443 638.0170000000002" stroke-linecap="round" />
</g>
		<g transform="matrix(1 0 0 1 -128.36 144.14)"  >
<path style="stroke: none; stroke-width: 1; stroke-dasharray: none; stroke-linecap: butt; stroke-dashoffset: 0; stroke-linejoin: miter; stroke-miterlimit: 4; fill: rgb(218,77,94); fill-rule: nonzero; opacity: 1;" vector-effect="non-scaling-stroke"  transform=" translate(-383.64, -656.14)" d="M 388.983 645.102 L 388.983 661.903 C 385.587 664.073 382.015 665.8050000000001 378.295 667.174 L 378.295 650.374 C 382.016 649.005 385.587 647.2710000000001 388.983 645.102" stroke-linecap="round" />
</g>
		<g transform="matrix(1 0 0 1 -146.5 148.99)"  >
<path style="stroke: none; stroke-width: 1; stroke-dasharray: none; stroke-linecap: butt; stroke-dashoffset: 0; stroke-linejoin: miter; stroke-miterlimit: 4; fill: rgb(218,77,94); fill-rule: nonzero; opacity: 1;" vector-effect="non-scaling-stroke"  transform=" translate(-365.5, -660.99)" d="M 378.296 650.372 L 378.296 667.1719999999999 C 373.598 668.8979999999999 368.661 670.0389999999999 363.536 670.7399999999999 L 363.536 653.9399999999999 C 368.661 653.2389999999999 373.597 652.097 378.296 650.372 M 363.534 653.94 L 363.534 670.74 C 360.013 671.222 356.402 671.495 352.714 671.607 L 352.714 654.8059999999999 C 356.402 654.6949999999999 360.013 654.4219999999999 363.534 653.9399999999999" stroke-linecap="round" />
</g>
		<g transform="matrix(1 0 0 1 -159.29 113.23)"  >
<path style="stroke: none; stroke-width: 1; stroke-dasharray: none; stroke-linecap: butt; stroke-dashoffset: 0; stroke-linejoin: miter; stroke-miterlimit: 4; fill: rgb(240,154,154); fill-rule: nonzero; opacity: 1;" vector-effect="non-scaling-stroke"  transform=" translate(-352.71, -625.22)" d="M 351.465 595.637 C 356.513 595.6479999999999 361.517 596.0949999999999 366.606 596.9219999999999 C 377.835 598.7459999999999 387.935 602.805 395.496 610.5239999999999 C 400.17699999999996 615.3079999999999 402.46299999999997 620.4899999999999 402.438 625.5749999999999 C 402.40999999999997 631.7139999999999 399.018 637.7109999999999 392.41999999999996 642.7099999999999 C 381.049 651.3169999999999 367.47099999999995 654.3629999999999 352.71399999999994 654.81 C 338.28999999999996 654.39 324.86299999999994 651.3789999999999 313.47399999999993 643.0429999999999 C 306.46599999999995 637.9089999999999 302.94199999999995 631.4489999999998 302.9819999999999 625.0099999999999 C 303.0199999999999 618.7679999999999 306.4069999999999 612.5459999999998 313.21199999999993 607.5649999999998 C 313.8101594300604 607.1308163793578 314.41489621145365 606.7057670980588 315.02599999999995 606.2899999999998 C 325.88899999999995 598.9189999999999 337.96899999999994 595.7469999999998 350.818 595.6439999999999 C 351.034 595.637 351.24899999999997 595.637 351.465 595.637 z" stroke-linecap="round" />
</g>
		<g transform="matrix(1 0 0 1 -28 -33.2)"  >
<path style="stroke: none; stroke-width: 1; stroke-dasharray: none; stroke-linecap: butt; stroke-dashoffset: 0; stroke-linejoin: miter; stroke-miterlimit: 4; fill: rgb(230,102,118); fill-rule: nonzero; opacity: 1;" vector-effect="non-scaling-stroke"  transform=" translate(-484, -478.8)" d="M 690.971 294.775 C 690.809 378.58799999999997 690.507 462.4 691.081 546.213 C 691.2520000000001 571.8439999999999 677.5740000000001 588.639 651.566 598.1279999999999 C 638.921 602.7429999999999 626.3530000000001 605.107 614.004 605.107 C 596.8580000000001 605.107 580.131 600.55 564.191 591.1419999999999 C 547.811 581.4789999999999 538.408 567.862 539.5360000000001 550.087 C 540.5340000000001 534.482 549.6260000000001 522.415 564.272 514.123 C 580.7700000000001 504.78200000000004 597.5730000000001 500.23900000000003 614.561 500.23900000000003 C 630.124 500.23900000000003 645.841 504.04900000000004 661.643 511.47600000000006 C 662.421 511.85300000000007 663.198 512.2360000000001 663.9820000000001 512.591 C 664.6390000000001 469.505 664.6390000000001 426.512 664.6390000000001 383.055 C 662.8450000000001 383.509 661.1920000000001 383.902 659.5590000000001 384.356 C 583.988 405.167 508.4180000000001 426.004 432.8090000000001 446.719 C 429.2890000000001 447.68 428.3330000000001 448.981 428.3330000000001 452.08799999999997 C 428.4550000000001 507.705 427.9200000000001 563.3199999999999 428.6460000000001 618.9259999999999 C 428.97800000000007 644.2789999999999 415.34900000000005 660.8559999999999 389.8190000000001 670.414 C 377.01700000000005 675.201 364.2950000000001 677.635 351.7840000000001 677.635 C 334.6910000000001 677.635 317.9910000000001 673.096 301.9920000000001 663.822 C 279.9680000000001 651.051 271.49000000000007 629.157 280.4200000000001 609.62 C 287.5270000000001 594.079 301.38900000000007 584.313 318.94700000000006 578.619 C 330.58000000000004 574.846 342.0930000000001 572.927 353.4440000000001 572.927 C 369.2630000000001 572.927 384.76900000000006 576.659 399.8590000000001 584.315 C 400.37200000000007 584.5780000000001 400.8970000000001 584.8100000000001 401.4420000000001 585.032 C 402.4600000000001 583.5210000000001 402.4600000000001 582.046 402.4600000000001 580.571 C 402.4600000000001 509.43100000000004 402.44900000000007 438.29600000000005 402.4600000000001 367.158 C 402.4600000000001 357.399 405.0000000000001 354.43 415.7860000000001 351.463 C 501.4550000000001 327.90000000000003 587.1260000000001 304.34000000000003 672.7850000000001 280.761 C 673.47 280.569 674.104 280.22900000000004 674.7610000000001 279.959 L 681.032 279.959 C 688.582 282.772 690.979 287.809 690.971 294.775 z M 661.566 360.28099999999995 C 664.1840000000001 359.55899999999997 664.941 358.5319999999999 664.943 356.304 C 664.8922932289835 347.5404294500889 664.8709597758191 338.77671355731746 664.8789999999997 330.0130000000011 C 664.879 325.16299999999995 664.885 320.31199999999995 664.885 315.46299999999997 C 664.885 313.52099999999996 664.885 311.582 664.883 309.64199999999994 C 664.883 308.77799999999996 664.741 307.90299999999996 664.652 306.87399999999997 C 663.553 307.056 662.6690000000001 307.126 661.8290000000001 307.354 C 585.1080000000001 328.462 508.41200000000003 349.58799999999997 431.6830000000001 370.625 C 429.0340000000001 371.356 428.3750000000001 372.451 428.3750000000001 374.634 C 428.4260000000001 383.468 428.4330000000001 392.19800000000004 428.4330000000001 400.92900000000003 L 428.43200000000013 412.57000000000005 C 428.43200000000013 415.48100000000005 428.4330000000001 418.39000000000004 428.4370000000001 421.30000000000007 C 428.4370000000001 422.16400000000004 428.5580000000001 423.03800000000007 428.6280000000001 424.13000000000005 C 429.8570000000001 423.86600000000004 430.8750000000001 423.71200000000005 431.8440000000001 423.44100000000003 C 508.4130000000001 402.37500000000006 584.9680000000001 381.28600000000006 661.5660000000001 360.28100000000006 M 392.42 642.708 C 399.017 637.711 402.409 631.712 402.438 625.574 C 402.46 620.4889999999999 400.176 615.3059999999999 395.496 610.5219999999999 C 387.93399999999997 602.8029999999999 377.835 598.746 366.606 596.92 C 361.515 596.0949999999999 356.513 595.6469999999999 351.62 595.635 C 351.248 595.635 351.037 595.635 350.819 595.638 C 337.96700000000004 595.7420000000001 325.89000000000004 598.913 315.02700000000004 606.284 C 314.41580455998576 606.6992937858001 313.8110656419993 607.124011195676 313.213 607.558 C 306.406 612.54 303.02200000000005 618.762 302.983 625.003 C 302.943 631.4430000000001 306.468 637.902 313.476 643.0360000000001 C 324.865 651.3720000000001 338.291 654.384 352.716 654.802 C 367.473 654.361 381.049 651.315 392.42 642.708 M 648.7950000000001 574.112 C 659.335 568.1899999999999 665.022 560.413 664.9610000000001 552.4839999999999 C 664.9090000000001 545.9159999999999 660.9140000000001 539.2429999999999 652.4640000000002 533.4399999999999 C 641.9710000000001 526.237 629.6740000000002 523.3299999999999 616.6410000000002 523.13 C 616.1617055166605 523.1223412648898 615.6823555590731 523.1186744710557 615.2030000000001 523.119 L 614.8490000000002 523.119 C 600.0610000000001 523.173 586.3820000000002 526.644 574.9800000000001 535.515 C 568.6720000000001 540.417 565.3990000000001 546.305 565.3550000000001 552.285 C 565.3210000000001 557.24 567.5010000000001 562.2579999999999 572.0160000000001 566.831 C 583.7790000000001 578.743 599.595 581.984 616.6590000000001 582.128 C 617.07 582.1320000000001 617.4780000000001 582.135 617.8890000000001 582.135 L 618.3330000000001 582.135 C 629.3310000000001 581.731 639.5930000000001 579.288 648.7950000000001 574.112" stroke-linecap="round" />
</g>
		<g transform="matrix(1 0 0 1 -159.21 145.13)"  >
<path style="stroke: none; stroke-width: 1; stroke-dasharray: none; stroke-linecap: butt; stroke-dashoffset: 0; stroke-linejoin: miter; stroke-miterlimit: 4; fill: rgb(218,77,94); fill-rule: nonzero; opacity: 1;" vector-effect="non-scaling-stroke"  transform=" translate(-352.79, -657.13)" d="M 428.653 619.831 L 428.653 636.631 C 428.653 661.4739999999999 415.04900000000004 677.771 389.82000000000005 687.217 C 377.01700000000005 692.005 364.29600000000005 694.439 351.7850000000001 694.439 C 334.6930000000001 694.439 317.99300000000005 689.901 301.99300000000005 680.626 C 285.78900000000004 671.23 276.91700000000003 656.895 276.91700000000003 642.193 L 276.91700000000003 625.3919999999999 C 276.91700000000003 640.093 285.788 654.4279999999999 301.99300000000005 663.8259999999999 C 317.9920000000001 673.098 334.69200000000006 677.6389999999999 351.7850000000001 677.6389999999999 C 364.2960000000001 677.6389999999999 377.01900000000006 675.2049999999999 389.82000000000005 670.4179999999999 C 415.04900000000004 660.9709999999999 428.653 644.6739999999999 428.653 619.8309999999999 z" stroke-linecap="round" />
</g>
		<g transform="matrix(1 0 0 1 -103.12 141.65)"  >
<path style="stroke: none; stroke-width: 1; stroke-dasharray: none; stroke-linecap: butt; stroke-dashoffset: 0; stroke-linejoin: miter; stroke-miterlimit: 4; fill: rgb(218,77,94); fill-rule: nonzero; opacity: 1;" vector-effect="non-scaling-stroke"  transform=" translate(-408.89, -653.65)" d="M 428.653 619.831 L 428.653 636.631 C 428.653 637.958 428.615 639.261 428.53700000000003 640.5409999999999 L 428.53700000000003 623.741 C 428.615 622.461 428.653 621.159 428.653 619.831 M 428.537 623.741 L 428.537 640.5409999999999 C 427.851 651.88 424.135 661.3219999999999 417.599 669.045 L 417.599 652.245 C 424.135 644.522 427.854 635.08 428.537 623.741 M 417.599 652.247 L 417.599 669.0469999999999 C 414.224 673.035 410.09999999999997 676.564 405.253 679.6589999999999 L 405.253 662.8579999999998 C 410.09999999999997 659.7619999999998 414.226 656.2329999999998 417.599 652.2469999999998 M 405.253 662.858 L 405.253 679.659 C 400.731 682.548 395.57599999999996 685.059 389.82 687.217 L 389.12399999999997 687.4739999999999 L 389.12399999999997 670.674 L 389.82 670.417 C 395.577 668.2610000000001 400.73 665.748 405.253 662.8580000000001" stroke-linecap="round" />
</g>
		<g transform="matrix(1 0 0 1 -178.98 147.91)"  >
<path style="stroke: none; stroke-width: 1; stroke-dasharray: none; stroke-linecap: butt; stroke-dashoffset: 0; stroke-linejoin: miter; stroke-miterlimit: 4; fill: rgb(218,77,94); fill-rule: nonzero; opacity: 1;" vector-effect="non-scaling-stroke"  transform=" translate(-333.02, -659.92)" d="M 389.125 670.674 L 389.125 687.4739999999999 C 381.132 690.4119999999999 373.17 692.43 365.273 693.511 L 365.273 676.711 C 373.17 675.63 381.13 673.61 389.125 670.674 M 365.271 676.71 L 365.271 693.51 C 360.75100000000003 694.126 356.254 694.4399999999999 351.783 694.4399999999999 C 334.69100000000003 694.4399999999999 317.991 689.901 301.991 680.627 C 285.787 671.231 276.91499999999996 656.8969999999999 276.91499999999996 642.194 L 276.91499999999996 625.394 C 276.91499999999996 640.094 285.78599999999994 654.429 301.991 663.827 C 317.99 673.099 334.69 677.64 351.783 677.64 C 356.29485617092797 677.6353286197286 360.8011995805074 677.3246154397978 365.271 676.71" stroke-linecap="round" />
</g>
</g>
</g>
<g transform="matrix(0 0 0 0 0 0)"  >
<g style=""   >
</g>
</g>
<g transform="matrix(NaN NaN NaN NaN 0 0)"  >
<g style=""   >
</g>
</g>
</svg>